<?xml version="1.0" encoding="UTF-8" standalone="no"?>
<svg
   xmlns:dc="http://purl.org/dc/elements/1.1/"
   xmlns:cc="http://creativecommons.org/ns#"
   xmlns:rdf="http://www.w3.org/1999/02/22-rdf-syntax-ns#"
   xmlns:svg="http://www.w3.org/2000/svg"
   xmlns="http://www.w3.org/2000/svg"
   xmlns:sodipodi="http://sodipodi.sourceforge.net/DTD/sodipodi-0.dtd"
   xmlns:inkscape="http://www.inkscape.org/namespaces/inkscape"
   version="1.1"
   id="Layer_1"
   x="0px"
   y="0px"
   width="905"
   height="919"
   viewBox="0 0 905.0000000000006 918.9999999999992"
   enable-background="new 0 0 578 462"
   xml:space="preserve"
   inkscape:version="0.91 r13725"
   sodipodi:docname="Bomb-2.svg"><metadata
     id="metadata8"><rdf:RDF><cc:Work
         rdf:about=""><dc:format>image/svg+xml</dc:format><dc:type
           rdf:resource="http://purl.org/dc/dcmitype/StillImage" /><dc:date>2016</dc:date><dc:creator><cc:Agent><dc:title>Lazur</dc:title></cc:Agent></dc:creator><dc:description>Original raster images of this series were uploaded by NicholasJudy456 to openclipart embedded in svg-s (416 in total).  This is one of the refixes upon request by the original author.</dc:description><dc:contributor><cc:Agent><dc:title /></cc:Agent></dc:contributor><dc:title></dc:title></cc:Work></rdf:RDF></metadata><defs
     id="defs6" /><sodipodi:namedview
     pagecolor="#ffffff"
     bordercolor="#666666"
     borderopacity="1"
     objecttolerance="10"
     gridtolerance="10"
     guidetolerance="10"
     inkscape:pageopacity="0"
     inkscape:pageshadow="2"
     inkscape:window-width="1366"
     inkscape:window-height="705"
     id="namedview4"
     showgrid="false"
     borderlayer="true"
     inkscape:showpageshadow="false"
     inkscape:zoom="0.6039173014145811"
     inkscape:cx="452.5"
     inkscape:cy="459.5"
     inkscape:window-x="-8"
     inkscape:window-y="-8"
     inkscape:window-maximized="1"
     inkscape:current-layer="Layer_1"
     fit-margin-top="0"
     fit-margin-left="0"
     fit-margin-right="0"
     fit-margin-bottom="0"
     showguides="true"
     inkscape:guide-bbox="true"
     showborder="true" /><path
     inkscape:connector-curvature="0"
     id="path5225"
     d="m 382.5,890.4734935227321 -27,-0.073142031327 -14,-1.4528918755381 -22,-3.0577321416829 -23.9111543769795,-5.0026800829703 -21.5,-6.0556072105021 -20.0888456230205,-7.0168398011449 -24.7980712033196,-10.8444292056763 -26,-13.8249291458834 -22.8809700516598,-14.7924636930935 -22,-16.8222429815503 -10.8209587450206,-8.969464646637 -13.5036151138136,-13.530535353363 -13.5036151138137,-13.5305353533631 -10.002392021018,-12.5 -17.12082986767739,-23 -11.85312183650494,-18.5 -11.49947394607243,-21.5 -12.34190002113586,-27.5 -5.57711006490871,-14 -4.03075033589603,-13.8386269473963 -4.03075033589606,-13.8386269473965 -2.96628414234067,-14.6613730526035 -4.7358918065715,-28.6613730526037 -1.76960766423084,-14 -0.0320496831152,-25.5 -0.0320496831152,-25.5 1.28683138307382,-10.5 3.3049486873864,-22.5 5.05662495748229,-24.5 7.0503540397069,-24.5 8.3321911223535,-22.6164581701365 10.83414991781932,-23.6154490255877 12.18780601009783,-22.3835418298634 12.19398201148775,-18.8845509744124 12.0712805066599,-16.5 15.6162861616547,-18.4212804433968 10.0649868383879,-11.4212804433968 11.5,-10.5068230377482 20.5038365812624,-17.6770910314161 20,-14.6800452618976 20.8157836642292,-13.250936814932 24,-12.5818515586115 26.3014876016066,-11.3671235119214 25.5,-8.5318007627634 13.3788921529019,-4.0053692627507 15,-2.9967753289142 28,-4.7194307747169 13,-1.7226554458028 27,-0.039119661191 27,-0.039119661191 13.6200994525052,1.7724416084514 27.9740723499665,4.6729458170382 14.45627416524,2.7079098918739 17.4280095335903,-30.9912238264404 17.3257082658116,-30.7986295097279 1.0979181164433,0.4266035637202 27.0979181164431,10.4687244544461 27.3760481634175,10.3720259460079 1.3760481634181,0.3299050552815 4.1881383709765,-11.5 9.9509779509675,-27.6358552900076 5.7628395799909,-16.1358552900076 14.6729738856144,-6.6393518321385 14.6729738856151,-6.6393518321383 24.5,3.5970564113016 24.5,3.5970564113017 11,-0.6467920727797 57.5,-1.5542580324997 46.5,-0.9074659597199 2.612622319554,-0.6079070016631 2.6126223195539,-0.607907001663 11.9091430241266,4.792366764896 -6.591833409782,9.1320196605817 -8.6833798426802,2.1778553977767 -8.6833798426809,2.1778553977767 -22.587897284046,3.0024386998807 -22.5878972840454,3.0024386998807 -14,-0.6544921742443 -14,-0.6544921742441 -18.1422908809524,-3.8497893857386 -18.1422908809519,-3.8497893857388 -14.3885819832873,-1.5767754944618 -14.3885819832866,-1.5767754944619 -10.8504231406332,4.0251882089556 -10.8504231406323,4.0251882089557 -8.4438696459447,7.7536972800998 -14.3876185803683,13.2536972801 -5.943748934424,5.5 -2.486326072226,13.4114260091812 -2.2310854147604,13.6044369440497 26.4755224883537,16.9821505013399 26.2202818308865,16.7891395664714 -0.645106918559,1.1064234894789 -17.0134428478574,26.8871118285431 -16.8527097264715,27.0429462209331 -0.4843737971736,1.2622578818688 8.7775348141439,7.0470695048771 19.0607587043927,16.2976572155874 10.2832238902489,9.2505877107105 9.6308126008479,10.6593965634795 16.8319228683647,19.6593965634795 13.7222308539508,18.5 12.1977605274044,18.8889032647844 12.4717802195845,23 11.8581233142371,26.1110967352156 8.6953821592457,24.484352236663 6.0787642736783,22.3377956459728 4.4094597111032,22.0156477633369 3.2499259441223,22.1622043540269 1.2868313830743,10.5 -0.032049683115,25.5 -0.032049683115,25.5 -1.7886985127329,14 -4.7141623447222,28.5870631628158 -2.9254638319887,14.5870631628154 -4.0524797977456,13.9129368371846 -4.0524797977457,13.9129368371842 -5.5771100649085,14 -12.3419000211353,27.5 -11.499473946073,21.5 -11.8531218365055,18.5 -17.1244449814909,22.9864153695861 -10.0060071348314,12.4864153695861 -13.5,13.5922318497743 -13.5,13.5922318497743 -10.8209587450206,8.9213527806396 -22,16.7741311155534 -22.9362388290601,14.8251690178456 -27,14.2976507776444 -15.2428024259189,7.3252600947119 -12.5590157672212,4.5361511094824 -24.5,8.062338697384 -11.9409842327788,3.5261875879021 -15.0129611697786,3.0187733343184 -28,4.6106064723407 -12.9870388302214,1.5918331380226 z"
     style="fill:#000000"
     sodipodi:nodetypes="cccccccccccccccccccccccccccccccccccccccccccccccccccccccccccccccccccccccccccccccccccccccccccccccccccccccccccccccccccccccccccccccccccccccccc" /><path
     inkscape:connector-curvature="0"
     id="path5229"
     d="m 773.8441514079994,149 -0.8441514079994,-0.779858916922 1.5447405901645,-13.25 1.5447405901648,-12.470141083078 -0.6678526287369,-4 -0.6678526287375,-4 -2.1268879614274,-3.711393858172 -2.1268879614274,-3.7113938581718 -13.75,-5.6445627653212 -13.75,-5.96856040917523 7.5,-4.46408910915989 7.5,-4.48851525014879 -6.5,-2.51148474985121 -6.5,-2.49821309007518 9.25,-2.47726218382388 12.9872001001572,-3.11841481042723 3.7372001001572,-0.97630475167034 -10.0459669590358,-20.07280238979047 -9.6876509849004,-20.43111836392472 18.7743051559024,15.64139140048848 18.4159891817668,15.99970737462274 0.6443237670029,-1.78349159269966 1.3155058539948,-9.28349159269963 1.2741184895636,-11.88628220349767 0.6029364025724,-4.38628220349767 0.7892887276074,1.4103807089582 7.9351344069469,18.84360406159067 7.6249463521038,18.20842452519887 0.4791006727651,0.77520117256644 14.0583764723601,-7.04259759166429 14.5528360717858,-6.54813799223757 -7.6065921056623,13.95774979330908 -8.1010517050879,14.3904414680834 0,0.92715127420115 12.0527356830548,4.78910447710621 11.6766736863792,5.16516647378219 -16.1372353155266,2.8039019821937 -16.0927813934447,2.7600070197126 2.5942210816104,13.2391122517229 2.6315124439105,13.2012619298215 -11.2597214491385,-6.6371842496765 -10.9654047368451,-6.9315009619697 -1.5,1.8889174341933 -10.9058485920006,13.4802390321483 z"
     style="fill:#fec80d"
     sodipodi:nodetypes="ccccccccccccccccccccccccccccccccccccccccccccc" /></svg>